<svg width="41" height="40" viewBox="0 0 41 40" fill="none" xmlns="http://www.w3.org/2000/svg">
<circle cx="20" cy="20" r="20" width="40" height="40" fill="#FF007A"/>
<path fill-rule="evenodd" clip-rule="evenodd" d="M9.41506 8.09332C12.1538 11.4198 16.3736 16.5917 16.5852 16.8738C16.7615 17.1088 16.6909 17.3322 16.3971 17.4967C16.2325 17.5908 15.8917 17.6848 15.7271 17.6848C15.539 17.6848 15.3157 17.5908 15.1629 17.438C15.0571 17.3322 14.5987 16.6622 13.5643 15.0518C12.7768 13.8176 12.1068 12.795 12.095 12.7833C12.048 12.7598 12.048 12.7598 13.482 15.3222C14.3871 16.9325 14.681 17.5085 14.681 17.579C14.681 17.7318 14.6339 17.8141 14.4459 18.0257C14.1285 18.3783 13.9875 18.7779 13.8817 19.6125C13.7641 20.5411 13.4468 21.1993 12.5417 22.316C12.0128 22.9742 11.9305 23.0918 11.8012 23.3621C11.6366 23.6912 11.5896 23.8793 11.5661 24.3024C11.5426 24.7491 11.5896 25.0312 11.7189 25.4544C11.8364 25.8305 11.9657 26.0773 12.2831 26.5593C12.5534 26.9824 12.718 27.2998 12.718 27.4173C12.718 27.5114 12.7415 27.5114 13.1647 27.4173C14.1755 27.1822 15.0101 26.7826 15.4685 26.2889C15.7506 25.9833 15.8211 25.8187 15.8211 25.3956C15.8211 25.1252 15.8094 25.0665 15.7388 24.9019C15.6213 24.6433 15.398 24.4317 14.9161 24.1026C14.2813 23.6677 14.011 23.3151 13.9404 22.8449C13.8817 22.4453 13.9522 22.1749 14.3048 21.4344C14.6692 20.6704 14.7632 20.353 14.822 19.5772C14.8573 19.0836 14.9161 18.8837 15.0571 18.7309C15.2099 18.5664 15.3392 18.5076 15.7036 18.4606C16.3031 18.3783 16.6909 18.2255 16.9966 17.9316C17.2669 17.6848 17.3844 17.438 17.3962 17.0736L17.3997 16.9935C17.6725 17.1923 17.9581 17.3239 18.1992 17.3493C18.4931 17.3728 18.5753 17.2787 18.4461 17.0907C18.258 16.8321 18.0347 16.4207 17.9759 16.2444C17.9406 16.1386 17.8583 15.8094 17.7996 15.5273C17.5997 14.5635 17.3882 14.1756 16.918 13.8935C16.7417 13.7877 16.3773 13.6467 16.1657 13.6114L16.0482 13.5879L16.0247 13.8347C15.9756 14.3823 16.1141 15.0606 16.369 15.6522C14.221 13.2757 9.0444 7.58789 9.01542 7.58789C9.00824 7.58789 9.07562 7.67122 9.18005 7.80038L9.18005 7.80039L9.18006 7.80039C9.24659 7.88267 9.32815 7.98355 9.41506 8.09332ZM13.0236 24.8079C13.1529 24.5845 13.0824 24.3024 12.8708 24.1614C12.671 24.0321 12.3654 24.0909 12.3654 24.2672C12.3654 24.3142 12.3889 24.3612 12.4594 24.3847C12.5652 24.4435 12.577 24.5023 12.4947 24.6316C12.4124 24.7609 12.4124 24.8784 12.5182 24.9607C12.6827 25.09 12.9061 25.0195 13.0236 24.8079ZM17.2282 12.6585C16.9814 12.6232 16.9696 12.6115 17.0871 12.5997C17.3105 12.5645 17.8277 12.6115 18.192 12.6938C19.0384 12.8936 19.8024 13.4108 20.6134 14.3159L20.825 14.5627L21.1306 14.5157C22.4353 14.3041 23.7753 14.4687 24.892 14.9859C25.1976 15.1269 25.6795 15.409 25.7383 15.4795C25.7618 15.503 25.797 15.6558 25.8206 15.8086L25.8254 15.8416C25.8176 14.8992 25.6851 14.6552 24.9912 14.257C24.8149 14.1512 24.5093 13.9984 24.3329 13.9161C24.1449 13.8338 24.0038 13.7633 24.0156 13.7633C24.0391 13.7398 24.7326 13.9396 25.0029 14.0572C25.4143 14.2217 25.4849 14.2335 25.5319 14.2217C25.5671 14.1865 25.5906 14.0924 25.6024 13.7986C25.6259 13.3519 25.6847 13.0581 25.814 12.7877C25.861 12.6819 25.908 12.5879 25.9198 12.5879C25.9315 12.5879 25.908 12.6702 25.8727 12.7642C25.7787 13.0228 25.767 13.3872 25.8257 13.7986C25.908 14.3275 25.9433 14.398 26.5075 14.974C26.7661 15.2444 27.0717 15.5852 27.1892 15.7263L27.389 15.9849L27.1892 15.7968C26.9424 15.5617 26.3782 15.1151 26.2489 15.0563C26.1666 15.0093 26.1549 15.0093 26.0961 15.068C26.0491 15.1151 26.0373 15.1856 26.0373 15.5265C26.0272 15.9792 25.9741 16.2855 25.8485 16.5781C25.8253 16.7725 25.7737 16.9415 25.6913 17.0899C25.5972 17.2662 25.5972 17.3132 25.656 17.466C25.703 17.5835 25.8441 17.6658 25.9734 17.6658C26.2555 17.6658 26.5493 17.2192 26.6904 16.5962L26.7491 16.3493L26.8549 16.4669C27.4544 17.1369 27.9246 18.0655 27.9951 18.7237L28.0186 18.9L27.9128 18.7472C27.7365 18.4769 27.5719 18.3006 27.3486 18.1477C26.949 17.8774 26.5258 17.7951 25.4092 17.7363C24.3983 17.6776 23.8223 17.5953 23.2581 17.4072C22.2943 17.0899 21.8006 16.6785 20.6604 15.1622C20.155 14.4922 19.8376 14.1278 19.5203 13.8222C18.8268 13.1522 18.1333 12.7996 17.2282 12.6585ZM25.165 21.0789C22.8377 20.1386 22.0149 19.3275 22.0149 17.9523C22.0149 17.7524 22.0266 17.5879 22.0266 17.5879C22.0345 17.5879 22.0736 17.6192 22.1302 17.6645L22.1303 17.6645L22.1303 17.6645C22.1586 17.6872 22.1912 17.7133 22.2265 17.7407C22.6966 18.1168 23.2256 18.2814 24.6949 18.493C25.5529 18.6223 26.0466 18.7163 26.4933 18.8691C27.9155 19.3393 28.7971 20.3031 29.0087 21.6078C29.0674 21.984 29.0322 22.701 28.9381 23.0771C28.8559 23.371 28.6208 23.9117 28.562 23.9234C28.5503 23.9234 28.5268 23.8647 28.5268 23.7706C28.5032 23.277 28.2564 22.8068 27.845 22.4424C27.3513 22.0192 26.7166 21.7019 25.165 21.0789ZM22.894 20.7642C22.9293 20.8582 22.988 21.0816 23.0115 21.2579C23.1996 22.3628 22.6236 23.2679 21.46 23.6322C21.3424 23.6793 20.8723 23.7733 20.4138 23.8438C19.4853 24.0084 19.0621 24.1142 18.6507 24.314C18.3568 24.455 17.9925 24.6666 18.016 24.6901C18.0277 24.7019 18.0982 24.6784 18.1688 24.6549L18.1688 24.6549C18.6977 24.4668 19.2854 24.3728 20.167 24.3257C20.462 24.3061 20.79 24.2782 20.9718 24.2627L20.972 24.2627L21.0603 24.2552C21.8479 24.1494 22.4003 23.9143 22.8235 23.4794C23.0585 23.2326 23.1996 23.0093 23.3171 22.6919C23.3877 22.4921 23.3994 22.4098 23.3994 22.0572C23.3994 21.6928 23.3994 21.6223 23.3171 21.3989C23.2114 21.1051 23.0938 20.8935 22.941 20.7172L22.8352 20.5879L22.894 20.7642ZM24.3129 23.6096C24.0073 22.9396 23.9367 22.3049 24.1013 21.7054C24.1248 21.6467 24.1483 21.5879 24.1718 21.5879C24.1953 21.5879 24.2658 21.6232 24.3364 21.6702C24.4774 21.7642 24.7713 21.9288 25.5236 22.3402C26.4756 22.8574 27.0163 23.257 27.3925 23.7154C27.7216 24.1151 27.9214 24.5735 28.0155 25.1377C28.0742 25.455 28.039 26.2191 27.9567 26.5364C27.6981 27.5355 27.1104 28.3348 26.2523 28.7932C26.123 28.8638 26.0172 28.9108 26.0055 28.9108C25.9937 28.9108 26.0407 28.7932 26.1113 28.6522C26.3934 28.0527 26.4286 27.4768 26.2171 26.8303C26.0878 26.4306 25.8174 25.9487 25.2767 25.1377C24.6302 24.1973 24.4774 23.9505 24.3129 23.6096ZM18.1885 25.6282C17.2012 25.7928 16.1315 26.3099 15.2617 27.0387L15.0149 27.2738L15.2382 27.3091C16.4136 27.4854 16.731 27.6499 17.5538 28.4962C18.024 28.9782 18.1885 29.084 18.5764 29.1897C19.1524 29.3425 19.7166 29.0722 19.9164 28.555C19.9987 28.3199 19.9869 27.9438 19.8929 27.7557C19.6578 27.2973 18.9643 27.1563 18.6352 27.4854C18.3649 27.7557 18.4471 28.1789 18.788 28.2494C18.8585 28.2612 18.8585 28.2612 18.7645 28.2141C18.6117 28.1436 18.5412 28.0496 18.5412 27.8968C18.5294 27.5324 18.9408 27.3443 19.3169 27.5089C19.5991 27.6382 19.7048 27.8027 19.7048 28.0848C19.7048 28.5198 19.3287 28.8606 18.8938 28.8019C18.6587 28.7666 18.3766 28.6255 18.2238 28.4492C17.8477 28.0261 17.9887 27.3326 18.5294 27.074C18.9408 26.8742 19.4815 26.9329 19.9047 27.2033C20.3866 27.5206 20.5982 27.8027 21.0096 28.7548C21.1506 29.0722 21.3152 29.4131 21.3975 29.5306C21.7853 30.1183 22.2673 30.4122 22.8315 30.4122C23.1488 30.4122 23.3839 30.3652 23.6778 30.2124C23.8894 30.1066 24.2067 29.895 24.1832 29.8715C24.1832 29.8622 24.1248 29.8822 24.0483 29.9083C24.0277 29.9153 24.0058 29.9228 23.9834 29.9303C23.3604 30.1653 22.7257 30.1536 22.3613 29.8832C22.1262 29.7069 21.9381 29.3778 21.8441 28.9547L21.8326 28.8876L21.8326 28.8876L21.8326 28.8874C21.8102 28.7582 21.7646 28.4941 21.7266 28.2376C21.5973 27.4266 21.468 27.0622 21.1859 26.6391C20.892 26.2042 20.3278 25.8515 19.7048 25.687C19.3169 25.5812 18.6117 25.5577 18.1885 25.6282ZM17.0389 19.3101C17.1211 19.0045 17.3915 18.6989 17.6736 18.6166C17.8617 18.5579 18.226 18.5931 18.4023 18.6871C18.7432 18.8635 18.9901 19.2514 18.9313 19.5335C18.8725 19.8743 18.3201 20.1564 17.6736 20.1564C17.3445 20.1564 17.2269 20.1094 17.0976 19.9449C17.0153 19.8391 16.9918 19.4982 17.0389 19.3101ZM18.3083 18.8047C18.4846 18.9105 18.5199 19.0633 18.4259 19.2043C18.3553 19.2984 18.1438 19.3924 17.991 19.3924C17.7559 19.3924 17.509 19.2278 17.509 19.075C17.509 18.7694 17.991 18.6049 18.3083 18.8047Z" fill="white"/>
</svg>
