<svg id="svg" version="1.1" xmlns="http://www.w3.org/2000/svg" xmlns:xlink="http://www.w3.org/1999/xlink" width="400" height="400" viewBox="0, 0, 400,400"><g id="svgg"><path id="path0" d="M29.309 85.200 C 29.309 86.190,29.387 86.595,29.482 86.100 C 29.578 85.605,29.578 84.795,29.482 84.300 C 29.387 83.805,29.309 84.210,29.309 85.200 M29.932 89.210 C 30.026 90.196,29.916 90.800,29.642 90.800 C 29.385 90.800,29.200 91.553,29.200 92.600 C 29.200 93.590,29.380 94.400,29.600 94.400 C 29.826 94.400,30.000 95.533,30.000 97.000 C 30.000 98.430,30.159 99.600,30.353 99.600 C 30.548 99.600,30.832 100.770,30.985 102.200 C 31.138 103.630,31.427 104.800,31.627 104.800 C 31.827 104.800,32.106 105.520,32.246 106.400 C 32.387 107.280,32.659 108.000,32.851 108.000 C 33.043 108.000,33.200 108.270,33.200 108.600 C 33.200 108.930,33.360 109.200,33.555 109.200 C 33.751 109.200,34.029 109.830,34.174 110.600 C 34.318 111.370,34.608 112.000,34.818 112.000 C 35.028 112.000,35.200 112.431,35.200 112.957 C 35.200 113.484,35.470 114.018,35.800 114.145 C 36.130 114.271,36.400 114.741,36.400 115.187 C 36.400 115.634,36.580 116.000,36.800 116.000 C 37.020 116.000,37.200 116.276,37.200 116.613 C 37.200 116.949,37.470 117.329,37.800 117.455 C 38.130 117.582,38.400 118.007,38.400 118.400 C 38.400 118.793,38.670 119.218,39.000 119.345 C 39.330 119.471,39.600 119.851,39.600 120.187 C 39.600 120.524,39.768 120.800,39.973 120.800 C 40.178 120.800,40.474 121.205,40.630 121.700 C 40.787 122.195,41.223 122.870,41.600 123.200 C 41.977 123.530,42.413 124.205,42.570 124.700 C 42.726 125.195,43.022 125.600,43.227 125.600 C 43.432 125.600,43.600 125.870,43.600 126.200 C 43.600 126.530,43.777 126.800,43.992 126.800 C 44.208 126.800,44.498 127.250,44.636 127.800 C 44.774 128.350,45.047 128.800,45.243 128.800 C 45.440 128.800,45.600 129.070,45.600 129.400 C 45.600 129.730,45.870 130.000,46.200 130.000 C 46.530 130.000,46.800 130.270,46.800 130.600 C 46.800 130.930,46.980 131.200,47.200 131.200 C 47.420 131.200,47.600 131.457,47.600 131.771 C 47.600 132.086,47.825 132.588,48.100 132.888 C 48.699 133.542,49.504 134.773,49.873 135.600 C 50.020 135.930,50.559 136.596,51.070 137.081 C 51.582 137.565,52.000 138.246,52.000 138.593 C 52.000 138.941,52.270 139.329,52.600 139.455 C 52.930 139.582,53.200 139.936,53.200 140.243 C 53.200 140.549,53.368 140.800,53.573 140.800 C 53.778 140.800,54.074 141.205,54.230 141.700 C 54.387 142.195,54.823 142.870,55.200 143.200 C 55.577 143.530,56.008 144.188,56.158 144.663 C 56.308 145.138,56.694 145.627,57.015 145.750 C 57.337 145.874,57.600 146.240,57.600 146.565 C 57.600 146.889,57.934 147.390,58.343 147.677 C 58.751 147.965,59.213 148.605,59.370 149.100 C 59.526 149.595,59.802 150.000,59.984 150.000 C 60.165 150.000,60.426 150.450,60.564 151.000 C 60.702 151.550,60.992 152.000,61.208 152.000 C 61.423 152.000,61.600 152.204,61.600 152.454 C 61.600 152.704,62.050 153.325,62.600 153.835 C 63.150 154.345,63.600 155.046,63.600 155.393 C 63.600 155.741,63.870 156.129,64.200 156.255 C 64.530 156.382,64.800 156.736,64.800 157.043 C 64.800 157.349,64.977 157.600,65.192 157.600 C 65.408 157.600,65.698 158.050,65.836 158.600 C 65.990 159.215,66.371 159.600,66.825 159.600 C 67.350 159.600,67.638 159.998,67.821 160.972 C 67.963 161.727,68.331 162.441,68.639 162.560 C 68.948 162.678,69.200 162.969,69.200 163.206 C 69.200 163.443,69.650 164.086,70.200 164.636 C 70.750 165.186,71.200 165.833,71.200 166.072 C 71.200 166.312,71.650 166.925,72.200 167.435 C 72.750 167.945,73.200 168.550,73.200 168.781 C 73.200 169.011,73.377 169.200,73.592 169.200 C 73.808 169.200,74.089 169.615,74.216 170.123 C 74.344 170.631,74.887 171.376,75.424 171.779 C 75.961 172.182,76.400 172.828,76.400 173.213 C 76.400 173.599,76.670 174.018,77.000 174.145 C 77.330 174.271,77.600 174.618,77.600 174.915 C 77.600 175.213,78.050 175.847,78.600 176.325 C 79.150 176.803,79.600 177.466,79.600 177.797 C 79.600 178.129,79.777 178.400,79.992 178.400 C 80.208 178.400,80.496 178.844,80.632 179.386 C 80.768 179.928,81.221 180.480,81.639 180.612 C 82.056 180.745,82.508 181.291,82.642 181.827 C 82.777 182.362,83.035 182.800,83.216 182.800 C 83.398 182.800,83.674 183.205,83.830 183.700 C 83.987 184.195,84.423 184.870,84.800 185.200 C 85.177 185.530,85.611 186.196,85.763 186.680 C 85.916 187.163,86.391 187.670,86.820 187.806 C 87.248 187.942,87.708 188.491,87.842 189.027 C 87.977 189.562,88.228 190.000,88.400 190.000 C 88.572 190.000,88.823 190.438,88.958 190.973 C 89.092 191.509,89.561 192.061,90.000 192.200 C 90.439 192.339,90.908 192.891,91.042 193.427 C 91.177 193.962,91.447 194.400,91.643 194.400 C 91.840 194.400,92.000 194.735,92.000 195.144 C 92.000 195.553,92.439 196.218,92.976 196.621 C 93.513 197.024,94.053 197.757,94.177 198.250 C 94.301 198.743,94.761 199.261,95.201 199.400 C 95.640 199.540,96.000 199.899,96.000 200.198 C 96.000 200.498,96.246 200.989,96.547 201.290 C 96.848 201.591,97.220 202.234,97.374 202.719 C 97.528 203.203,97.822 203.600,98.027 203.600 C 98.232 203.600,98.400 203.804,98.400 204.054 C 98.400 204.304,98.850 204.925,99.400 205.435 C 99.950 205.945,100.400 206.590,100.400 206.868 C 100.400 207.147,100.805 207.743,101.300 208.193 C 102.189 209.001,102.945 210.040,103.480 211.191 C 103.632 211.516,104.171 212.167,104.678 212.637 C 105.185 213.107,105.600 213.688,105.600 213.928 C 105.600 214.167,106.014 214.777,106.519 215.283 C 107.025 215.788,107.559 216.517,107.707 216.901 C 107.854 217.285,108.161 217.600,108.387 217.600 C 108.614 217.600,108.800 217.935,108.800 218.344 C 108.800 218.753,109.239 219.418,109.776 219.821 C 110.313 220.224,110.856 220.969,110.984 221.477 C 111.111 221.985,111.392 222.400,111.608 222.400 C 111.823 222.400,112.000 222.676,112.000 223.013 C 112.000 223.349,112.270 223.729,112.600 223.855 C 112.930 223.982,113.200 224.345,113.200 224.662 C 113.200 224.979,113.650 225.655,114.200 226.165 C 114.750 226.675,115.200 227.230,115.200 227.400 C 115.200 227.570,115.650 228.125,116.200 228.635 C 116.750 229.145,117.200 229.815,117.200 230.125 C 117.200 230.435,117.650 231.026,118.200 231.439 C 118.750 231.852,119.200 232.419,119.200 232.699 C 119.200 232.979,119.560 233.516,120.000 233.893 C 120.440 234.270,120.800 234.798,120.800 235.066 C 120.800 235.335,121.134 235.790,121.543 236.077 C 121.951 236.365,122.413 237.005,122.570 237.500 C 122.726 237.995,123.022 238.400,123.227 238.400 C 123.432 238.400,123.600 238.657,123.600 238.971 C 123.600 239.285,124.050 239.896,124.600 240.329 C 125.150 240.761,125.600 241.410,125.600 241.770 C 125.600 242.130,125.870 242.529,126.200 242.655 C 126.530 242.782,126.800 243.136,126.800 243.443 C 126.800 243.749,126.977 244.000,127.192 244.000 C 127.408 244.000,127.698 244.450,127.836 245.000 C 127.974 245.550,128.293 246.000,128.546 246.000 C 128.798 246.000,129.261 246.578,129.574 247.285 C 129.886 247.992,130.560 248.957,131.071 249.431 C 131.582 249.904,132.000 250.430,132.000 250.600 C 132.000 250.770,132.450 251.325,133.000 251.835 C 133.550 252.345,134.000 253.015,134.000 253.325 C 134.000 253.635,134.450 254.226,135.000 254.639 C 135.550 255.052,136.000 255.604,136.000 255.866 C 136.000 256.128,136.246 256.589,136.547 256.890 C 136.848 257.191,137.220 257.834,137.374 258.319 C 137.528 258.803,137.822 259.200,138.027 259.200 C 138.232 259.200,138.400 259.470,138.400 259.800 C 138.400 260.130,138.670 260.400,139.000 260.400 C 139.330 260.400,139.600 260.670,139.600 261.000 C 139.600 261.330,139.760 261.600,139.957 261.600 C 140.153 261.600,140.426 262.050,140.564 262.600 C 140.702 263.150,140.992 263.600,141.208 263.600 C 141.423 263.600,141.600 263.794,141.600 264.031 C 141.600 264.268,142.140 265.002,142.800 265.662 C 143.460 266.322,144.000 267.052,144.000 267.284 C 144.000 267.516,144.334 267.997,144.743 268.353 C 145.151 268.709,145.611 269.396,145.763 269.880 C 145.916 270.363,146.374 270.865,146.781 270.994 C 147.188 271.123,147.632 271.672,147.768 272.214 C 147.904 272.756,148.192 273.200,148.408 273.200 C 148.623 273.200,148.800 273.427,148.800 273.704 C 148.800 273.981,149.214 274.656,149.721 275.204 C 150.227 275.752,150.761 276.515,150.908 276.900 C 151.055 277.285,151.361 277.600,151.587 277.600 C 151.814 277.600,152.000 277.935,152.000 278.344 C 152.000 278.753,152.439 279.418,152.976 279.821 C 153.513 280.224,154.056 280.969,154.184 281.477 C 154.311 281.985,154.592 282.400,154.808 282.400 C 155.023 282.400,155.200 282.589,155.200 282.819 C 155.200 283.050,155.625 283.635,156.144 284.119 C 156.664 284.604,157.216 285.405,157.371 285.900 C 157.527 286.395,157.822 286.800,158.027 286.800 C 158.232 286.800,158.400 287.004,158.400 287.254 C 158.400 287.504,158.850 288.125,159.400 288.635 C 159.950 289.145,160.400 289.815,160.400 290.125 C 160.400 290.435,160.839 291.018,161.376 291.421 C 161.913 291.824,162.456 292.569,162.584 293.077 C 162.711 293.585,162.992 294.000,163.208 294.000 C 163.423 294.000,163.600 294.204,163.600 294.454 C 163.600 294.704,164.029 295.306,164.553 295.792 C 165.077 296.278,165.630 297.063,165.780 297.538 C 165.931 298.012,166.222 298.400,166.427 298.400 C 166.632 298.400,166.800 298.670,166.800 299.000 C 166.800 299.330,166.968 299.600,167.173 299.600 C 167.378 299.600,167.672 299.997,167.826 300.481 C 167.980 300.966,168.352 301.609,168.653 301.910 C 168.954 302.211,169.200 302.714,169.200 303.029 C 169.200 303.343,169.546 303.600,169.968 303.600 C 170.497 303.600,170.819 303.975,171.000 304.800 C 171.145 305.460,171.426 306.000,171.624 306.000 C 171.822 306.000,172.089 306.415,172.216 306.923 C 172.344 307.431,172.887 308.176,173.424 308.579 C 173.961 308.982,174.400 309.635,174.400 310.029 C 174.400 310.423,174.760 310.860,175.200 311.000 C 175.640 311.140,176.000 311.499,176.000 311.798 C 176.000 312.098,176.225 312.588,176.500 312.888 C 177.089 313.531,177.893 314.756,178.280 315.600 C 178.431 315.930,178.790 316.438,179.078 316.729 C 179.365 317.019,179.600 317.514,179.600 317.829 C 179.600 318.143,179.777 318.400,179.992 318.400 C 180.208 318.400,180.498 318.850,180.636 319.400 C 180.774 319.950,181.047 320.400,181.243 320.400 C 181.440 320.400,181.600 320.670,181.600 321.000 C 181.600 321.330,181.768 321.600,181.973 321.600 C 182.178 321.600,182.462 321.966,182.604 322.414 C 182.940 323.470,186.884 327.446,187.924 327.776 C 188.365 327.916,188.827 328.294,188.950 328.615 C 189.074 328.937,189.541 329.200,189.987 329.200 C 190.434 329.200,190.800 329.380,190.800 329.600 C 190.800 329.820,191.055 330.000,191.367 330.000 C 191.678 330.000,191.999 330.198,192.080 330.439 C 192.160 330.681,193.075 330.974,194.113 331.091 C 195.151 331.208,196.000 331.461,196.000 331.652 C 196.000 331.843,197.710 332.000,199.800 332.000 C 202.067 332.000,203.600 331.839,203.600 331.600 C 203.600 331.380,204.049 331.200,204.597 331.200 C 205.737 331.200,208.800 329.965,208.800 329.506 C 208.800 329.338,209.072 329.200,209.404 329.200 C 209.736 329.200,210.316 328.840,210.693 328.400 C 211.070 327.960,211.522 327.600,211.697 327.600 C 212.192 327.600,216.400 323.343,216.400 322.843 C 216.400 322.599,216.577 322.400,216.792 322.400 C 217.008 322.400,217.298 321.950,217.436 321.400 C 217.574 320.850,217.826 320.400,217.997 320.400 C 218.167 320.400,218.412 320.085,218.542 319.700 C 218.811 318.899,219.570 317.685,220.300 316.888 C 220.575 316.588,220.800 316.152,220.800 315.918 C 220.800 315.685,221.134 315.203,221.543 314.847 C 221.951 314.491,222.413 313.795,222.570 313.300 C 222.726 312.805,223.022 312.400,223.227 312.400 C 223.432 312.400,223.600 312.124,223.600 311.787 C 223.600 311.451,223.870 311.071,224.200 310.945 C 224.530 310.818,224.800 310.455,224.800 310.138 C 224.800 309.821,225.250 309.145,225.800 308.635 C 226.350 308.125,226.800 307.504,226.800 307.254 C 226.800 307.004,226.977 306.800,227.192 306.800 C 227.408 306.800,227.698 306.350,227.836 305.800 C 227.974 305.250,228.247 304.800,228.443 304.800 C 228.640 304.800,228.800 304.530,228.800 304.200 C 228.800 303.870,229.049 303.600,229.353 303.600 C 229.658 303.600,230.012 303.285,230.142 302.900 C 230.411 302.099,231.170 300.885,231.900 300.088 C 232.175 299.788,232.400 299.325,232.400 299.060 C 232.400 298.794,232.760 298.317,233.200 298.000 C 233.640 297.683,234.000 297.218,234.000 296.968 C 234.000 296.717,234.450 296.174,235.000 295.761 C 235.550 295.348,236.000 294.796,236.000 294.534 C 236.000 294.272,236.246 293.811,236.547 293.510 C 236.848 293.209,237.217 292.575,237.368 292.102 C 237.518 291.628,237.992 291.130,238.420 290.994 C 238.849 290.857,239.200 290.438,239.200 290.062 C 239.200 289.686,239.560 289.070,240.000 288.693 C 240.440 288.316,240.800 287.776,240.800 287.492 C 240.800 287.209,241.160 286.717,241.600 286.400 C 242.040 286.083,242.400 285.591,242.400 285.308 C 242.400 285.024,242.760 284.484,243.200 284.107 C 243.640 283.730,244.000 283.232,244.000 282.999 C 244.000 282.767,244.360 282.317,244.800 282.000 C 245.240 281.683,245.600 281.192,245.600 280.909 C 245.600 280.626,246.050 280.003,246.600 279.525 C 247.150 279.047,247.600 278.413,247.600 278.115 C 247.600 277.818,247.870 277.471,248.200 277.345 C 248.530 277.218,248.800 276.872,248.800 276.575 C 248.800 276.279,249.228 275.608,249.752 275.084 C 250.276 274.561,250.828 273.742,250.979 273.266 C 251.130 272.790,251.422 272.400,251.627 272.400 C 251.832 272.400,252.000 272.155,252.000 271.856 C 252.000 271.557,252.439 270.982,252.976 270.579 C 253.513 270.176,254.056 269.431,254.184 268.923 C 254.311 268.415,254.592 268.000,254.808 268.000 C 255.023 268.000,255.200 267.806,255.200 267.569 C 255.200 267.332,255.740 266.598,256.400 265.938 C 257.060 265.278,257.600 264.522,257.600 264.258 C 257.600 263.993,257.953 263.522,258.385 263.211 C 258.817 262.899,259.281 262.140,259.417 261.522 C 259.553 260.905,259.919 260.400,260.232 260.400 C 260.544 260.400,260.800 260.196,260.800 259.947 C 260.800 259.698,261.134 259.203,261.543 258.847 C 261.951 258.491,262.413 257.795,262.570 257.300 C 262.726 256.805,263.002 256.400,263.184 256.400 C 263.365 256.400,263.623 255.962,263.758 255.427 C 263.892 254.891,264.361 254.339,264.801 254.200 C 265.240 254.060,265.600 253.623,265.600 253.229 C 265.600 252.835,266.050 252.174,266.600 251.761 C 267.150 251.348,267.600 250.781,267.600 250.501 C 267.600 250.221,267.960 249.684,268.400 249.307 C 268.840 248.930,269.200 248.392,269.200 248.111 C 269.200 247.830,269.380 247.600,269.600 247.600 C 269.820 247.600,270.000 247.240,270.000 246.800 C 270.000 246.356,270.267 246.000,270.600 246.000 C 270.930 246.000,271.200 245.730,271.200 245.400 C 271.200 245.070,271.377 244.800,271.592 244.800 C 271.808 244.800,272.096 244.356,272.232 243.814 C 272.368 243.272,272.822 242.720,273.240 242.587 C 273.658 242.455,274.000 242.023,274.000 241.629 C 274.000 241.235,274.439 240.582,274.976 240.179 C 275.513 239.776,276.056 239.031,276.184 238.523 C 276.311 238.015,276.592 237.600,276.808 237.600 C 277.023 237.600,277.200 237.324,277.200 236.987 C 277.200 236.651,277.470 236.271,277.800 236.145 C 278.130 236.018,278.400 235.655,278.400 235.338 C 278.400 235.021,278.850 234.345,279.400 233.835 C 279.950 233.325,280.400 232.703,280.400 232.451 C 280.400 232.200,280.850 231.603,281.400 231.125 C 281.950 230.647,282.400 230.058,282.400 229.817 C 282.400 229.575,282.760 229.070,283.200 228.693 C 283.640 228.316,284.000 227.779,284.000 227.499 C 284.000 227.219,284.450 226.652,285.000 226.239 C 285.550 225.826,286.000 225.165,286.000 224.771 C 286.000 224.377,286.360 223.940,286.800 223.800 C 287.240 223.660,287.600 223.301,287.600 223.002 C 287.600 222.702,287.846 222.211,288.147 221.910 C 288.448 221.609,288.817 220.975,288.968 220.502 C 289.118 220.028,289.592 219.530,290.020 219.394 C 290.449 219.257,290.800 218.793,290.800 218.360 C 290.800 217.928,291.070 217.471,291.400 217.345 C 291.730 217.218,292.000 216.872,292.000 216.575 C 292.000 216.279,292.450 215.586,293.000 215.036 C 293.550 214.486,294.000 213.875,294.000 213.678 C 294.000 213.480,294.495 212.766,295.100 212.090 C 296.860 210.126,297.200 209.660,297.200 209.214 C 297.200 208.983,297.650 208.403,298.200 207.925 C 298.750 207.447,299.200 206.813,299.200 206.515 C 299.200 206.218,299.463 205.874,299.785 205.750 C 300.106 205.627,300.492 205.138,300.642 204.663 C 300.792 204.188,301.223 203.530,301.600 203.200 C 301.977 202.870,302.413 202.195,302.570 201.700 C 302.726 201.205,303.022 200.800,303.227 200.800 C 303.432 200.800,303.600 200.555,303.600 200.256 C 303.600 199.957,304.050 199.374,304.600 198.961 C 305.150 198.548,305.600 197.982,305.600 197.702 C 305.600 197.423,306.035 196.816,306.568 196.353 C 307.100 195.891,307.652 195.046,307.795 194.477 C 307.938 193.908,308.650 192.882,309.377 192.196 C 310.104 191.510,310.837 190.511,311.005 189.975 C 311.174 189.439,311.894 188.449,312.605 187.775 C 313.317 187.101,314.024 186.156,314.176 185.675 C 314.329 185.194,314.601 184.800,314.780 184.800 C 314.960 184.800,315.212 184.485,315.342 184.100 C 315.660 183.153,316.435 181.977,317.400 180.977 C 318.262 180.085,319.044 178.960,319.473 178.000 C 319.620 177.670,320.159 177.004,320.670 176.519 C 321.182 176.035,321.600 175.379,321.600 175.062 C 321.600 174.745,321.870 174.382,322.200 174.255 C 322.530 174.129,322.800 173.741,322.800 173.393 C 322.800 173.046,323.250 172.345,323.800 171.835 C 324.350 171.325,324.800 170.704,324.800 170.454 C 324.800 170.204,324.968 170.000,325.173 170.000 C 325.378 170.000,325.672 169.602,325.827 169.115 C 325.981 168.629,326.534 167.895,327.054 167.486 C 327.574 167.077,328.000 166.562,328.000 166.342 C 328.000 166.123,328.225 165.692,328.500 165.385 C 329.669 164.082,330.000 163.613,330.000 163.260 C 330.000 163.054,330.270 162.782,330.600 162.655 C 330.930 162.529,331.200 162.059,331.200 161.613 C 331.200 161.166,331.380 160.800,331.600 160.800 C 331.820 160.800,332.000 160.530,332.000 160.200 C 332.000 159.870,332.270 159.600,332.600 159.600 C 332.930 159.600,333.200 159.330,333.200 159.000 C 333.200 158.670,333.368 158.400,333.573 158.400 C 333.778 158.400,334.074 157.995,334.230 157.500 C 334.387 157.005,334.849 156.365,335.257 156.077 C 335.666 155.790,336.000 155.335,336.000 155.066 C 336.000 154.798,336.360 154.270,336.800 153.893 C 337.240 153.516,337.600 152.976,337.600 152.692 C 337.600 152.409,337.960 151.917,338.400 151.600 C 338.840 151.283,339.200 150.806,339.200 150.540 C 339.200 150.275,339.425 149.812,339.700 149.512 C 340.281 148.878,341.086 147.656,341.480 146.809 C 341.632 146.484,342.146 145.854,342.622 145.409 C 343.099 144.964,343.616 144.195,343.771 143.700 C 343.927 143.205,344.222 142.800,344.427 142.800 C 344.632 142.800,344.800 142.530,344.800 142.200 C 344.800 141.870,344.968 141.600,345.173 141.600 C 345.378 141.600,345.674 141.195,345.830 140.700 C 345.987 140.205,346.449 139.565,346.857 139.277 C 347.266 138.990,347.600 138.489,347.600 138.165 C 347.600 137.840,347.863 137.474,348.185 137.350 C 348.506 137.227,348.892 136.738,349.042 136.263 C 349.192 135.788,349.623 135.130,350.000 134.800 C 350.377 134.470,350.813 133.795,350.970 133.300 C 351.126 132.805,351.407 132.400,351.595 132.400 C 351.783 132.400,352.055 131.860,352.200 131.200 C 352.375 130.405,352.708 130.000,353.188 130.000 C 353.642 130.000,354.014 129.597,354.183 128.924 C 354.332 128.332,354.776 127.567,355.170 127.224 C 355.563 126.881,356.013 126.195,356.170 125.700 C 356.326 125.205,356.602 124.800,356.784 124.800 C 356.965 124.800,357.226 124.350,357.364 123.800 C 357.502 123.250,357.792 122.800,358.008 122.800 C 358.223 122.800,358.400 122.530,358.400 122.200 C 358.400 121.870,358.577 121.600,358.792 121.600 C 359.008 121.600,359.294 121.163,359.428 120.629 C 359.563 120.095,359.926 119.561,360.236 119.441 C 360.546 119.322,360.800 118.872,360.800 118.440 C 360.800 118.007,361.154 117.542,361.586 117.404 C 362.080 117.248,362.466 116.653,362.625 115.805 C 362.765 115.063,363.131 114.359,363.439 114.240 C 363.748 114.122,364.000 113.569,364.000 113.013 C 364.000 112.456,364.180 112.000,364.400 112.000 C 364.620 112.000,364.800 111.730,364.800 111.400 C 364.800 111.070,364.960 110.800,365.155 110.800 C 365.351 110.800,365.629 110.170,365.774 109.400 C 365.918 108.630,366.208 108.000,366.418 108.000 C 366.628 108.000,366.800 107.565,366.800 107.033 C 366.800 106.502,366.984 106.005,367.209 105.930 C 367.435 105.855,367.732 105.075,367.871 104.197 C 368.010 103.319,368.279 102.498,368.468 102.373 C 368.657 102.248,368.926 100.403,369.066 98.273 C 369.206 96.143,369.474 94.400,369.660 94.400 C 369.847 94.400,370.000 93.590,370.000 92.600 C 370.000 91.610,369.820 90.800,369.600 90.800 C 369.380 90.800,369.200 90.125,369.199 89.300 L 369.198 87.800 367.945 90.200 C 365.408 95.061,363.581 97.115,352.961 107.057 C 346.955 112.679,333.600 124.833,329.290 128.600 C 326.755 130.815,320.084 136.708,318.444 138.182 C 316.293 140.114,313.852 142.265,310.024 145.600 C 308.636 146.810,306.889 148.385,306.143 149.100 C 305.396 149.815,304.699 150.400,304.593 150.400 C 304.487 150.400,303.702 151.075,302.848 151.900 C 300.820 153.859,299.119 155.358,296.191 157.770 C 294.876 158.853,293.620 159.933,293.400 160.170 C 292.967 160.635,286.013 166.855,284.437 168.187 C 280.968 171.118,272.085 178.999,271.536 179.633 C 271.171 180.055,270.738 180.400,270.575 180.400 C 270.411 180.400,269.358 181.255,268.234 182.300 C 267.110 183.345,264.938 185.280,263.406 186.600 C 261.875 187.920,260.152 189.450,259.578 190.000 C 259.003 190.550,257.698 191.683,256.676 192.519 C 255.655 193.354,254.590 194.262,254.310 194.536 C 253.361 195.464,246.610 201.406,245.200 202.554 C 244.430 203.181,242.888 204.528,241.773 205.547 C 240.659 206.566,238.596 208.390,237.190 209.600 C 235.783 210.810,234.077 212.340,233.398 213.000 C 232.720 213.660,231.542 214.717,230.782 215.348 C 228.619 217.146,223.390 221.981,218.880 226.355 C 212.432 232.609,208.118 234.401,199.525 234.398 C 191.077 234.395,186.678 232.439,179.566 225.519 C 174.245 220.343,164.454 211.435,159.231 207.019 C 158.699 206.569,157.968 205.930,157.607 205.600 C 157.246 205.270,155.616 203.830,153.985 202.400 C 152.354 200.970,150.737 199.530,150.391 199.200 C 150.044 198.870,149.120 198.060,148.336 197.400 C 145.855 195.311,141.465 191.441,140.280 190.300 C 139.652 189.695,139.017 189.194,138.869 189.187 C 138.721 189.180,137.295 187.965,135.701 186.487 C 134.106 185.009,131.961 183.080,130.934 182.200 C 129.908 181.320,128.533 180.107,127.879 179.505 C 127.226 178.902,125.427 177.282,123.883 175.905 C 122.339 174.527,120.846 173.175,120.566 172.900 C 120.286 172.625,119.944 172.400,119.806 172.400 C 119.668 172.400,119.070 171.881,118.477 171.246 C 117.885 170.611,116.230 169.143,114.800 167.983 C 113.370 166.824,111.660 165.366,111.000 164.744 C 108.601 162.484,106.457 160.570,104.788 159.200 C 103.850 158.430,102.794 157.521,102.441 157.179 C 101.660 156.423,92.645 148.475,91.066 147.151 C 90.443 146.628,89.253 145.570,88.423 144.800 C 87.593 144.030,85.786 142.410,84.408 141.200 C 83.031 139.990,81.506 138.640,81.020 138.200 C 80.534 137.760,79.081 136.500,77.791 135.400 C 76.500 134.300,74.752 132.725,73.906 131.900 C 73.060 131.075,72.300 130.400,72.216 130.400 C 72.045 130.400,69.614 128.262,66.760 125.600 C 65.698 124.610,64.001 123.080,62.989 122.200 C 58.159 118.002,48.151 108.807,43.178 104.000 C 41.699 102.570,39.544 100.504,38.390 99.409 C 36.410 97.531,33.536 93.974,32.564 92.200 C 29.937 87.404,29.739 87.180,29.932 89.210 " stroke="none" fill="#2cbbf3" fill-rule="evenodd"></path><path id="path1" d="M47.292 66.800 C 46.707 67.345,45.881 67.600,44.697 67.600 C 43.742 67.600,42.754 67.806,42.502 68.058 C 42.250 68.310,41.089 68.852,39.922 69.263 C 38.755 69.674,37.740 70.188,37.667 70.405 C 37.593 70.622,37.273 70.800,36.954 70.800 C 36.636 70.800,36.271 71.070,36.145 71.400 C 36.018 71.730,35.587 72.000,35.186 72.000 C 34.786 72.000,34.104 72.450,33.671 73.000 C 33.239 73.550,32.686 74.000,32.442 74.000 C 32.199 74.000,32.000 74.270,32.000 74.600 C 32.000 74.930,31.820 75.200,31.600 75.200 C 31.380 75.200,31.200 75.551,31.200 75.980 C 31.200 76.409,30.975 76.904,30.700 77.080 C 30.425 77.256,30.012 77.760,29.782 78.200 C 29.341 79.045,29.309 87.042,29.745 87.478 C 29.885 87.619,30.000 87.523,30.000 87.267 C 30.000 86.103,30.828 87.020,31.959 89.439 C 32.639 90.890,33.736 92.761,34.397 93.596 C 35.059 94.432,35.600 95.211,35.600 95.328 C 35.600 95.807,47.687 107.371,56.600 115.419 C 57.260 116.015,58.575 117.218,59.522 118.094 C 60.469 118.969,62.809 121.047,64.722 122.712 C 66.635 124.377,68.380 125.954,68.600 126.217 C 68.820 126.480,72.060 129.362,75.800 132.620 C 79.540 135.878,83.596 139.457,84.814 140.572 C 86.032 141.687,88.171 143.590,89.566 144.800 C 90.962 146.010,92.787 147.630,93.622 148.400 C 94.456 149.170,95.886 150.430,96.798 151.200 C 97.710 151.970,99.145 153.230,99.987 154.000 C 100.829 154.770,102.380 156.120,103.434 157.000 C 104.487 157.880,107.264 160.310,109.603 162.400 C 111.942 164.490,114.995 167.190,116.387 168.400 C 117.779 169.610,119.296 170.929,119.759 171.332 C 120.221 171.734,121.338 172.724,122.239 173.532 C 123.141 174.339,125.028 175.990,126.433 177.200 C 127.837 178.410,129.999 180.300,131.237 181.400 C 135.344 185.050,139.350 188.589,140.382 189.478 C 140.942 189.961,141.940 190.833,142.600 191.417 C 143.260 192.000,144.790 193.343,146.000 194.400 C 147.210 195.457,148.662 196.745,149.228 197.261 C 149.793 197.777,151.307 199.100,152.593 200.200 C 156.308 203.379,162.504 208.858,163.647 209.976 C 164.222 210.539,165.465 211.630,166.409 212.400 C 169.624 215.023,175.625 220.519,181.125 225.877 C 190.612 235.118,203.279 236.635,213.800 229.791 C 215.268 228.836,214.921 229.145,220.515 223.800 C 227.576 217.054,228.828 215.890,230.222 214.783 C 230.931 214.219,232.836 212.563,234.456 211.102 C 236.075 209.641,237.778 208.121,238.239 207.723 C 238.700 207.325,240.410 205.802,242.039 204.338 C 243.668 202.874,247.520 199.481,250.600 196.798 C 258.484 189.931,260.818 187.888,261.572 187.200 C 262.449 186.398,269.256 180.416,271.957 178.072 C 273.143 177.042,274.313 176.008,274.557 175.774 C 274.801 175.540,275.990 174.483,277.200 173.424 C 278.410 172.366,279.938 171.027,280.596 170.450 C 281.253 169.872,282.513 168.800,283.396 168.066 C 284.900 166.814,289.285 162.906,292.221 160.200 C 292.937 159.540,294.388 158.280,295.446 157.400 C 296.504 156.520,300.796 152.768,304.985 149.063 C 312.338 142.558,315.505 139.760,318.865 136.800 C 319.739 136.030,321.121 134.770,321.936 134.000 C 322.752 133.230,324.199 131.970,325.152 131.200 C 326.696 129.952,330.203 126.820,333.212 124.000 C 334.137 123.133,339.217 118.559,341.207 116.800 C 344.524 113.870,348.545 110.236,350.379 108.513 C 362.960 96.689,364.952 94.455,367.604 89.200 C 368.659 87.110,368.970 86.751,369.188 87.371 C 369.440 88.085,369.480 88.090,369.730 87.438 C 370.165 86.305,370.051 78.400,369.600 78.400 C 369.380 78.400,369.200 78.143,369.200 77.829 C 369.200 77.514,368.975 77.019,368.700 76.729 C 368.425 76.438,367.945 75.705,367.632 75.100 C 367.320 74.495,366.825 74.000,366.532 74.000 C 366.240 74.000,366.000 73.730,366.000 73.400 C 366.000 73.070,365.775 72.800,365.500 72.800 C 365.225 72.799,364.477 72.349,363.838 71.800 C 363.199 71.250,362.434 70.800,362.138 70.800 C 361.842 70.800,361.600 70.653,361.600 70.474 C 361.600 70.068,358.992 68.800,358.158 68.800 C 357.820 68.800,357.273 68.530,356.943 68.200 C 356.590 67.847,355.613 67.600,354.571 67.600 C 353.350 67.600,352.558 67.358,352.022 66.822 C 351.139 65.939,345.475 65.674,344.514 66.471 C 344.147 66.776,344.000 66.770,344.000 66.451 C 344.000 65.762,55.755 65.810,55.434 66.499 C 55.247 66.899,55.153 66.900,54.967 66.500 C 54.544 65.594,48.326 65.837,47.292 66.800 " stroke="none" fill="#248cb4" fill-rule="evenodd"></path><path id="path2" d="M343.578 115.100 L 342.200 116.600 343.700 115.222 C 345.096 113.938,345.384 113.600,345.078 113.600 C 345.012 113.600,344.337 114.275,343.578 115.100 M93.600 149.000 C 94.346 149.770,95.047 150.400,95.157 150.400 C 95.267 150.400,94.746 149.770,94.000 149.000 C 93.254 148.230,92.553 147.600,92.443 147.600 C 92.333 147.600,92.854 148.230,93.600 149.000 M260.000 188.849 C 258.606 190.071,258.605 190.072,259.888 189.219 C 260.596 188.748,261.282 188.191,261.412 187.981 C 261.797 187.357,261.477 187.554,260.000 188.849 M250.975 196.900 L 249.800 198.200 251.100 197.025 C 251.815 196.379,252.400 195.794,252.400 195.725 C 252.400 195.416,252.070 195.688,250.975 196.900 M162.800 209.800 C 163.546 210.570,164.247 211.200,164.357 211.200 C 164.467 211.200,163.946 210.570,163.200 209.800 C 162.454 209.030,161.753 208.400,161.643 208.400 C 161.533 208.400,162.054 209.030,162.800 209.800 M166.400 213.000 C 167.146 213.770,167.847 214.400,167.957 214.400 C 168.067 214.400,167.546 213.770,166.800 213.000 C 166.054 212.230,165.353 211.600,165.243 211.600 C 165.133 211.600,165.654 212.230,166.400 213.000 M174.000 219.800 C 174.746 220.570,175.447 221.200,175.557 221.200 C 175.667 221.200,175.146 220.570,174.400 219.800 C 173.654 219.030,172.953 218.400,172.843 218.400 C 172.733 218.400,173.254 219.030,174.000 219.800 M198.112 234.295 C 199.164 234.377,200.784 234.376,201.712 234.292 C 202.640 234.208,201.780 234.141,199.800 234.142 C 197.820 234.143,197.060 234.212,198.112 234.295 " stroke="none" fill="#26a4d2" fill-rule="evenodd"></path><path id="path3" d="M31.024 89.500 C 32.564 92.287,33.037 92.565,31.728 89.914 C 31.108 88.657,30.459 87.622,30.287 87.614 C 30.115 87.606,30.447 88.455,31.024 89.500 M367.645 89.820 C 367.119 91.034,365.769 93.213,364.645 94.664 C 361.880 98.229,361.225 99.247,362.650 97.764 C 365.417 94.885,369.901 87.583,368.887 87.607 C 368.729 87.611,368.170 88.607,367.645 89.820 M32.800 92.524 C 32.800 93.360,40.067 101.600,40.805 101.600 C 40.938 101.600,39.776 100.290,38.223 98.688 C 36.670 97.086,34.815 94.984,34.100 94.015 C 33.385 93.047,32.800 92.376,32.800 92.524 M357.660 102.170 C 356.196 103.584,354.233 105.446,353.299 106.309 C 352.365 107.171,351.600 108.020,351.600 108.194 C 351.600 108.369,353.085 107.067,354.900 105.301 C 356.715 103.534,358.825 101.529,359.589 100.845 C 360.353 100.160,360.831 99.600,360.650 99.600 C 360.470 99.600,359.124 100.757,357.660 102.170 M43.773 104.600 C 44.589 105.370,45.369 106.000,45.507 106.000 C 45.644 106.000,45.146 105.370,44.400 104.600 C 43.654 103.830,42.873 103.200,42.666 103.200 C 42.458 103.200,42.956 103.830,43.773 104.600 M48.135 108.706 C 52.015 112.335,52.939 112.892,49.422 109.482 C 47.673 107.787,46.114 106.400,45.956 106.400 C 45.798 106.400,46.779 107.438,48.135 108.706 M346.583 112.504 C 340.893 117.782,335.883 122.298,333.553 124.251 C 332.537 125.103,331.478 126.160,331.200 126.600 C 330.922 127.040,330.837 127.266,331.011 127.103 C 331.185 126.940,332.775 125.500,334.546 123.903 C 336.316 122.306,340.047 118.905,342.837 116.345 C 345.627 113.785,348.155 111.533,348.455 111.341 C 349.084 110.939,351.437 108.398,351.175 108.404 C 351.079 108.407,349.013 110.252,346.583 112.504 M52.800 112.749 C 52.800 112.921,53.250 113.483,53.800 114.000 C 54.350 114.517,54.800 114.794,54.800 114.616 C 54.800 114.437,54.350 113.875,53.800 113.365 C 53.250 112.855,52.800 112.578,52.800 112.749 M55.615 115.390 C 55.937 115.825,56.650 116.569,57.200 117.045 C 57.750 117.520,58.888 118.560,59.728 119.355 C 60.569 120.150,61.379 120.798,61.528 120.795 C 61.678 120.792,60.893 119.937,59.785 118.895 C 56.569 115.869,54.985 114.538,55.615 115.390 M63.409 122.479 C 63.616 123.019,65.183 124.167,65.386 123.928 C 65.446 123.857,64.979 123.382,64.349 122.871 C 63.718 122.359,63.295 122.183,63.409 122.479 M67.200 125.983 C 70.598 129.136,72.066 130.400,72.327 130.400 C 72.651 130.400,67.379 125.603,66.234 124.856 C 65.775 124.557,66.210 125.064,67.200 125.983 M321.474 135.105 C 317.334 138.787,313.303 142.295,312.514 142.900 C 311.726 143.505,311.268 144.000,311.497 144.000 C 311.726 144.000,312.876 143.145,314.052 142.100 C 318.185 138.429,318.896 137.793,319.763 137.000 C 320.243 136.560,322.563 134.503,324.918 132.429 C 328.754 129.052,329.445 128.387,329.100 128.405 C 329.045 128.408,325.613 131.423,321.474 135.105 M76.139 134.000 C 76.891 134.660,77.662 135.200,77.853 135.199 C 78.044 135.199,77.570 134.659,76.800 134.000 C 76.030 133.341,75.259 132.801,75.086 132.801 C 74.913 132.800,75.387 133.340,76.139 134.000 M78.033 135.700 C 78.125 135.755,78.740 136.250,79.400 136.800 L 80.600 137.800 79.630 136.700 C 79.097 136.095,78.482 135.600,78.264 135.600 C 78.045 135.600,77.942 135.645,78.033 135.700 M82.800 139.800 C 83.317 140.350,83.897 140.800,84.090 140.800 C 84.283 140.800,83.956 140.350,83.362 139.800 C 82.769 139.250,82.188 138.800,82.072 138.800 C 81.956 138.800,82.283 139.250,82.800 139.800 M85.583 142.270 C 86.344 142.892,87.634 144.030,88.450 144.800 C 89.265 145.570,90.443 146.623,91.066 147.139 C 91.690 147.656,92.748 148.556,93.418 149.139 C 94.087 149.723,93.719 149.300,92.600 148.200 C 89.402 145.058,85.875 141.964,85.000 141.534 C 84.560 141.318,84.822 141.649,85.583 142.270 M310.000 145.231 C 307.796 147.005,304.412 150.145,304.553 150.286 C 304.636 150.369,305.670 149.547,306.852 148.460 C 308.033 147.373,309.540 146.020,310.200 145.454 C 311.613 144.242,311.452 144.063,310.000 145.231 M96.805 152.052 C 100.130 155.271,103.772 158.400,104.188 158.396 C 104.415 158.393,103.970 157.898,103.200 157.296 C 102.431 156.693,100.271 154.873,98.400 153.252 C 96.530 151.631,95.812 151.091,96.805 152.052 M300.000 154.000 C 299.230 154.659,298.756 155.199,298.947 155.199 C 299.138 155.200,299.909 154.660,300.661 154.000 C 301.413 153.340,301.887 152.800,301.714 152.801 C 301.541 152.801,300.770 153.341,300.000 154.000 M297.170 156.700 L 296.200 157.800 297.400 156.800 C 298.060 156.250,298.675 155.755,298.767 155.700 C 298.858 155.645,298.755 155.600,298.536 155.600 C 298.318 155.600,297.703 156.095,297.170 156.700 M291.800 161.229 C 289.600 163.224,286.517 165.917,284.950 167.214 C 283.382 168.510,281.480 170.162,280.724 170.885 C 279.545 172.012,277.721 173.630,273.755 177.067 C 267.528 182.464,264.265 185.368,262.422 187.156 C 259.220 190.263,263.400 186.764,268.224 182.300 C 269.353 181.255,270.411 180.400,270.575 180.400 C 270.738 180.400,271.171 180.055,271.536 179.633 C 272.085 178.999,280.968 171.118,284.437 168.187 C 285.635 167.175,292.400 161.118,294.580 159.105 C 295.471 158.283,296.110 157.608,296.000 157.605 C 295.890 157.603,294.000 159.234,291.800 161.229 M104.400 158.925 C 104.400 158.993,104.940 159.449,105.600 159.937 C 107.001 160.973,107.186 160.790,105.925 159.616 C 105.156 158.899,104.400 158.557,104.400 158.925 M110.800 164.497 C 110.800 164.605,112.195 165.825,113.900 167.210 C 115.605 168.595,117.576 170.329,118.280 171.064 C 119.587 172.429,120.541 172.935,119.549 171.737 C 118.466 170.429,110.800 164.086,110.800 164.497 M120.434 172.700 C 120.452 172.865,121.217 173.622,122.134 174.382 L 123.800 175.763 122.219 174.082 C 120.593 172.352,120.376 172.184,120.434 172.700 M125.686 177.554 C 126.409 178.189,127.710 179.359,128.578 180.154 C 129.446 180.949,130.336 181.600,130.556 181.600 C 130.776 181.600,130.425 181.191,129.778 180.692 C 129.130 180.192,127.790 179.022,126.800 178.092 C 125.810 177.161,124.859 176.400,124.686 176.400 C 124.514 176.400,124.963 176.919,125.686 177.554 M131.762 183.000 C 133.258 184.287,133.608 184.286,132.400 183.000 C 131.883 182.450,131.267 182.000,131.030 182.000 C 130.794 182.001,131.123 182.451,131.762 183.000 M133.650 184.290 C 133.878 184.881,138.799 189.334,139.001 189.132 C 139.099 189.035,138.246 188.155,137.107 187.178 C 135.969 186.200,134.691 185.063,134.268 184.650 C 133.846 184.238,133.567 184.075,133.650 184.290 M139.600 189.538 C 139.600 189.724,139.988 190.219,140.462 190.638 L 141.324 191.400 140.616 190.300 C 139.886 189.166,139.600 188.951,139.600 189.538 M258.233 190.617 C 257.372 191.378,256.742 192.075,256.833 192.166 C 257.032 192.363,258.298 191.321,259.362 190.085 C 260.445 188.828,260.048 189.015,258.233 190.617 M144.200 193.735 C 145.740 195.189,147.160 196.383,147.356 196.389 C 147.718 196.400,145.345 194.220,142.800 192.203 C 142.030 191.593,142.660 192.282,144.200 193.735 M251.190 196.911 C 250.414 197.620,248.630 199.190,247.226 200.400 C 244.170 203.034,233.884 212.029,233.600 212.316 C 233.490 212.427,233.696 212.356,234.058 212.159 C 234.724 211.795,238.070 208.929,241.773 205.551 C 242.888 204.534,244.880 202.799,246.200 201.697 C 249.215 199.177,253.065 195.639,252.800 195.629 C 252.690 195.625,251.965 196.202,251.190 196.911 M147.633 196.900 C 147.725 196.955,148.340 197.450,149.000 198.000 L 150.200 199.000 149.230 197.900 C 148.697 197.295,148.082 196.800,147.864 196.800 C 147.645 196.800,147.542 196.845,147.633 196.900 M150.605 199.200 C 150.743 199.530,152.031 200.790,153.467 202.000 C 154.903 203.210,156.465 204.560,156.939 205.000 C 157.412 205.440,158.250 206.148,158.800 206.573 C 159.965 207.474,155.721 203.365,154.334 202.249 C 153.820 201.836,152.714 200.846,151.877 200.049 C 151.039 199.252,150.466 198.870,150.605 199.200 M161.200 208.515 C 161.200 208.625,162.640 210.013,164.400 211.600 C 166.160 213.187,167.600 214.395,167.600 214.285 C 167.600 214.175,166.160 212.787,164.400 211.200 C 162.640 209.613,161.200 208.405,161.200 208.515 M229.783 215.849 C 226.861 218.648,227.579 218.136,231.954 214.300 C 232.895 213.475,233.508 212.800,233.315 212.800 C 233.123 212.800,231.533 214.172,229.783 215.849 M171.600 217.920 C 173.690 219.939,175.537 221.592,175.704 221.595 C 175.872 221.598,174.972 220.662,173.704 219.516 C 172.437 218.370,171.130 217.149,170.800 216.802 C 170.470 216.454,169.660 215.738,169.000 215.210 C 168.340 214.682,169.510 215.902,171.600 217.920 M223.700 221.167 C 222.325 222.450,221.200 223.633,221.200 223.797 C 221.200 223.961,222.055 223.264,223.100 222.248 C 224.145 221.232,225.129 220.400,225.286 220.400 C 225.443 220.400,225.765 220.040,226.000 219.600 C 226.596 218.487,226.513 218.544,223.700 221.167 M179.956 225.836 C 182.179 227.998,184.291 229.931,184.648 230.131 C 185.006 230.331,183.369 228.629,181.012 226.347 C 178.654 224.066,176.542 222.133,176.319 222.052 C 176.096 221.971,177.732 223.674,179.956 225.836 M216.600 228.087 C 215.500 229.157,213.655 230.496,212.500 231.063 C 211.345 231.630,210.400 232.165,210.400 232.252 C 210.400 232.588,213.417 231.129,214.578 230.231 C 216.869 228.459,219.000 226.480,218.800 226.311 C 218.690 226.217,217.700 227.017,216.600 228.087 M189.400 232.626 C 190.500 233.156,191.670 233.588,192.000 233.585 C 192.330 233.583,191.520 233.136,190.200 232.592 C 187.180 231.348,186.782 231.365,189.400 232.626 M193.221 234.021 C 193.755 234.360,196.742 234.581,196.367 234.255 C 196.275 234.175,195.399 234.008,194.421 233.882 C 193.270 233.735,192.846 233.784,193.221 234.021 M204.400 234.000 C 203.016 234.291,203.014 234.295,204.200 234.341 C 204.860 234.367,205.670 234.213,206.000 234.000 C 206.666 233.570,206.445 233.570,204.400 234.000 " stroke="none" fill="#2cacde" fill-rule="evenodd"></path><path id="path4" d="M365.199 93.300 C 364.610 94.104,364.513 94.384,364.945 94.033 C 365.601 93.500,366.593 92.000,366.289 92.000 C 366.213 92.000,365.722 92.585,365.199 93.300 M360.966 98.300 C 359.408 99.895,358.243 101.200,358.377 101.200 C 358.725 101.200,364.193 95.646,363.978 95.511 C 363.880 95.450,362.525 96.705,360.966 98.300 M36.799 97.100 C 37.322 97.815,37.813 98.400,37.889 98.400 C 38.193 98.400,37.201 96.900,36.545 96.367 C 36.113 96.016,36.210 96.296,36.799 97.100 M41.773 102.000 C 43.361 103.540,44.763 104.800,44.888 104.800 C 45.013 104.800,43.815 103.540,42.227 102.000 C 40.639 100.460,39.237 99.200,39.112 99.200 C 38.987 99.200,40.185 100.460,41.773 102.000 M48.800 108.600 C 49.995 109.810,51.063 110.800,51.173 110.800 C 51.283 110.800,50.395 109.810,49.200 108.600 C 48.005 107.390,46.937 106.400,46.827 106.400 C 46.717 106.400,47.605 107.390,48.800 108.600 M54.000 113.400 C 54.746 114.170,55.447 114.800,55.557 114.800 C 55.667 114.800,55.146 114.170,54.400 113.400 C 53.654 112.630,52.953 112.000,52.843 112.000 C 52.733 112.000,53.254 112.630,54.000 113.400 M343.178 115.100 L 341.800 116.600 343.300 115.222 C 344.696 113.938,344.984 113.600,344.678 113.600 C 344.612 113.600,343.937 114.275,343.178 115.100 M58.400 117.400 C 59.146 118.170,59.847 118.800,59.957 118.800 C 60.067 118.800,59.546 118.170,58.800 117.400 C 58.054 116.630,57.353 116.000,57.243 116.000 C 57.133 116.000,57.654 116.630,58.400 117.400 M338.981 118.900 L 337.400 120.600 339.194 119.000 C 340.180 118.120,341.065 117.355,341.161 117.300 C 341.256 117.245,341.160 117.200,340.948 117.200 C 340.736 117.200,339.851 117.965,338.981 118.900 M61.957 120.515 C 62.623 121.357,67.200 125.358,67.200 125.098 C 67.200 124.998,65.895 123.768,64.300 122.363 C 62.705 120.959,61.651 120.128,61.957 120.515 M335.170 122.300 L 334.200 123.400 335.400 122.400 C 336.060 121.850,336.675 121.355,336.767 121.300 C 336.858 121.245,336.755 121.200,336.536 121.200 C 336.318 121.200,335.703 121.695,335.170 122.300 M331.200 125.887 L 328.600 128.524 331.000 126.410 C 333.015 124.636,334.397 123.127,333.920 123.224 C 333.854 123.238,332.630 124.436,331.200 125.887 M73.800 131.200 C 74.659 132.080,75.452 132.800,75.562 132.800 C 75.672 132.800,75.059 132.080,74.200 131.200 C 73.341 130.320,72.548 129.600,72.438 129.600 C 72.328 129.600,72.941 130.320,73.800 131.200 M323.615 132.416 C 321.808 133.961,322.251 133.949,324.200 132.400 C 325.031 131.740,325.550 131.207,325.355 131.216 C 325.160 131.225,324.377 131.765,323.615 132.416 M77.200 134.200 C 77.946 134.970,78.647 135.600,78.757 135.600 C 78.867 135.600,78.346 134.970,77.600 134.200 C 76.854 133.430,76.153 132.800,76.043 132.800 C 75.933 132.800,76.454 133.430,77.200 134.200 M82.600 138.950 C 84.580 140.853,86.556 142.615,86.990 142.867 C 87.786 143.328,84.709 140.428,81.000 137.221 C 79.900 136.270,80.620 137.048,82.600 138.950 M311.191 143.643 C 309.766 144.986,308.870 145.901,309.200 145.675 C 310.108 145.053,314.230 141.205,313.991 141.202 C 313.877 141.201,312.617 142.299,311.191 143.643 M306.400 147.800 C 305.428 148.790,304.723 149.600,304.833 149.600 C 304.943 149.600,305.828 148.790,306.800 147.800 C 307.772 146.810,308.477 146.000,308.367 146.000 C 308.257 146.000,307.372 146.810,306.400 147.800 M302.581 151.300 L 301.000 153.000 302.700 151.419 C 304.281 149.948,304.584 149.600,304.281 149.600 C 304.216 149.600,303.451 150.365,302.581 151.300 M98.300 152.888 C 98.795 153.127,99.200 153.468,99.200 153.647 C 99.200 153.826,99.605 154.178,100.100 154.430 C 100.733 154.752,100.608 154.519,99.675 153.644 C 98.947 152.960,98.137 152.412,97.875 152.427 C 97.614 152.442,97.805 152.649,98.300 152.888 M299.000 154.316 C 298.120 155.139,296.770 156.319,296.000 156.938 C 295.230 157.558,294.960 157.887,295.400 157.669 C 296.228 157.259,301.155 152.842,300.800 152.828 C 300.690 152.824,299.880 153.493,299.000 154.316 M100.833 155.300 C 100.925 155.355,101.495 155.836,102.100 156.370 C 102.705 156.903,103.200 157.225,103.200 157.085 C 103.200 156.696,101.500 155.200,101.058 155.200 C 100.843 155.200,100.742 155.245,100.833 155.300 M106.200 159.559 C 107.174 160.693,113.200 166.157,113.200 165.905 C 113.200 165.807,111.445 164.129,109.300 162.176 C 107.155 160.224,105.760 159.046,106.200 159.559 M289.970 162.300 L 289.000 163.400 290.200 162.400 C 290.860 161.850,291.475 161.355,291.567 161.300 C 291.658 161.245,291.555 161.200,291.336 161.200 C 291.118 161.200,290.503 161.695,289.970 162.300 M283.687 167.900 C 282.730 168.835,282.714 168.881,283.581 168.206 C 285.288 166.876,285.369 166.800,285.086 166.800 C 284.936 166.800,284.306 167.295,283.687 167.900 M276.600 173.878 C 275.500 174.894,274.960 175.532,275.400 175.295 C 276.162 174.886,279.153 171.983,278.778 172.016 C 278.680 172.025,277.700 172.863,276.600 173.878 M127.699 178.678 C 128.634 179.491,130.132 180.796,131.027 181.578 C 131.921 182.360,131.291 181.697,129.627 180.105 C 127.962 178.513,126.464 177.208,126.299 177.205 C 126.133 177.202,126.763 177.865,127.699 178.678 M265.505 183.622 C 263.583 185.370,262.113 186.800,262.239 186.800 C 262.365 186.800,263.747 185.675,265.309 184.300 C 268.936 181.108,269.671 180.395,269.300 180.422 C 269.135 180.434,267.427 181.874,265.505 183.622 M133.564 183.735 C 134.149 184.463,136.400 186.177,136.400 185.894 C 136.400 185.806,135.635 185.126,134.700 184.383 C 133.765 183.640,133.254 183.348,133.564 183.735 M136.800 186.525 C 136.800 186.594,137.385 187.179,138.100 187.825 L 139.400 189.000 138.225 187.700 C 137.130 186.488,136.800 186.216,136.800 186.525 M251.600 195.837 C 249.510 197.702,247.350 199.701,246.800 200.280 C 246.250 200.859,248.005 199.400,250.700 197.038 C 254.914 193.344,255.993 192.306,255.500 192.424 C 255.445 192.437,253.690 193.973,251.600 195.837 M150.888 199.013 C 151.486 199.643,152.047 200.077,152.135 199.979 C 152.223 199.880,151.733 199.365,151.047 198.834 L 149.800 197.869 150.888 199.013 M153.200 200.892 C 153.200 200.983,154.415 202.117,155.900 203.411 C 157.385 204.705,158.240 205.347,157.800 204.838 C 156.919 203.817,153.200 200.627,153.200 200.892 M244.278 202.213 C 243.660 202.756,243.311 203.200,243.502 203.200 C 243.868 203.200,245.600 201.701,245.600 201.384 C 245.600 201.085,245.458 201.175,244.278 202.213 M240.581 205.677 L 239.000 207.354 240.465 206.177 C 241.687 205.195,242.678 204.000,242.269 204.000 C 242.210 204.000,241.451 204.755,240.581 205.677 M160.000 207.000 C 160.746 207.770,161.447 208.400,161.557 208.400 C 161.667 208.400,161.146 207.770,160.400 207.000 C 159.654 206.230,158.953 205.600,158.843 205.600 C 158.733 205.600,159.254 206.230,160.000 207.000 M238.342 207.475 C 238.264 207.654,237.601 208.295,236.869 208.900 C 236.137 209.505,235.687 209.993,235.869 209.984 C 236.422 209.957,238.966 207.633,238.717 207.383 C 238.588 207.255,238.420 207.296,238.342 207.475 M234.087 211.500 C 233.130 212.435,233.114 212.481,233.981 211.806 C 235.688 210.476,235.769 210.400,235.486 210.400 C 235.336 210.400,234.706 210.895,234.087 211.500 M167.167 213.345 C 167.700 214.001,169.200 214.993,169.200 214.689 C 169.200 214.613,168.615 214.122,167.900 213.599 C 167.096 213.010,166.816 212.913,167.167 213.345 M229.200 215.654 L 227.400 217.285 229.094 216.013 C 230.568 214.907,231.514 213.974,231.124 214.012 C 231.056 214.019,230.190 214.758,229.200 215.654 M171.200 217.000 C 172.315 217.990,173.326 218.800,173.447 218.800 C 173.568 218.800,172.798 217.990,171.735 217.000 C 170.671 216.010,169.660 215.200,169.488 215.200 C 169.315 215.200,170.085 216.010,171.200 217.000 M225.478 219.013 C 224.860 219.556,224.514 220.000,224.708 220.000 C 224.902 220.000,225.483 219.550,226.000 219.000 C 227.195 217.728,226.931 217.734,225.478 219.013 M175.400 220.800 C 176.259 221.680,177.052 222.400,177.162 222.400 C 177.272 222.400,176.659 221.680,175.800 220.800 C 174.941 219.920,174.148 219.200,174.038 219.200 C 173.928 219.200,174.541 219.920,175.400 220.800 M219.789 224.500 L 217.000 227.400 219.989 224.600 C 221.633 223.060,223.058 221.755,223.156 221.700 C 223.253 221.645,223.164 221.600,222.956 221.600 C 222.748 221.600,221.323 222.905,219.789 224.500 M181.313 226.400 C 181.874 227.247,184.804 229.868,184.798 229.517 C 184.797 229.453,183.863 228.500,182.723 227.400 C 181.583 226.300,180.949 225.850,181.313 226.400 M215.000 228.823 C 214.780 229.033,214.150 229.568,213.600 230.012 C 212.667 230.765,212.700 230.762,214.100 229.970 C 214.925 229.503,215.600 228.959,215.600 228.760 C 215.600 228.322,215.515 228.330,215.000 228.823 M210.400 231.600 C 209.630 232.022,209.180 232.366,209.400 232.366 C 209.620 232.366,210.430 232.022,211.200 231.600 C 211.970 231.178,212.420 230.834,212.200 230.834 C 211.980 230.834,211.170 231.178,210.400 231.600 " stroke="none" fill="#249ccc" fill-rule="evenodd"></path></g></svg>